<?xml version="1.0" encoding="utf-8"?>
<svg version="1.1" id="Layer_1" xmlns="http://www.w3.org/2000/svg" x="0px" y="0px"
	 viewBox="0 0 40 40" style="enable-background:new 0 0 40 40;" xml:space="preserve">
	<path fill="#599900" d="M36,10c0-1.1-0.9-2-2-2H6c-1.1,0-2,0.9-2,2v3c0,0.6,0.4,1,1,1h30c0.6,0,1-0.4,1-1V10z"/>
	<path fill="#88CE00" d="M4,17v15c0,1.1,0.9,2,2,2h28c1.1,0,2-0.9,2-2V17c0-0.6-0.4-1-1-1H5C4.4,16,4,16.4,4,17"/>
	<g fill="#FFF">
		<rect x="12.3" y="18.4" width="4" height="3"/>
		<rect x="18" y="18.4" width="4" height="3"/>
		<rect x="23.7" y="18.4" width="4" height="3"/>
		<rect x="29.3" y="18.4" width="4" height="3"/>
		<rect x="6.6" y="23.3" width="4" height="3"/>
		<rect x="12.3" y="23.3" width="4" height="3"/>
		<rect x="18" y="23.3" width="4" height="3"/>
		<rect x="23.7" y="23.3" width="4" height="3"/>
		<rect x="29.3" y="23.3" width="4" height="3"/>
		<rect x="6.6" y="28.2" width="4" height="3"/>
		<rect x="12.3" y="28.2" width="4" height="3"/>
		<rect x="18" y="28.2" width="4" height="3"/>
	</g>
</svg>
